<svg width="16" height="16" viewBox="0 0 16 16" fill="none" xmlns="http://www.w3.org/2000/svg">
<g id="Icon / Field / Calendar" clip-path="url(#clip0_1_36)">
<path id="Vector" d="M8.2 9.59999C7.97333 9.59999 7.78347 9.52318 7.6304 9.36959C7.4768 9.21652 7.4 9.02665 7.4 8.79998C7.4 8.57332 7.4768 8.38318 7.6304 8.22958C7.78347 8.07652 7.97333 7.99998 8.2 7.99998C8.42667 7.99998 8.6168 8.07652 8.7704 8.22958C8.92347 8.38318 9 8.57332 9 8.79998C9 9.02665 8.92347 9.21652 8.7704 9.36959C8.6168 9.52318 8.42667 9.59999 8.2 9.59999ZM5 9.59999C4.77333 9.59999 4.5832 9.52318 4.4296 9.36959C4.27653 9.21652 4.2 9.02665 4.2 8.79998C4.2 8.57332 4.27653 8.38318 4.4296 8.22958C4.5832 8.07652 4.77333 7.99998 5 7.99998C5.22667 7.99998 5.4168 8.07652 5.5704 8.22958C5.72347 8.38318 5.8 8.57332 5.8 8.79998C5.8 9.02665 5.72347 9.21652 5.5704 9.36959C5.4168 9.52318 5.22667 9.59999 5 9.59999ZM11.4 9.59999C11.1733 9.59999 10.9835 9.52318 10.8304 9.36959C10.6768 9.21652 10.6 9.02665 10.6 8.79998C10.6 8.57332 10.6768 8.38318 10.8304 8.22958C10.9835 8.07652 11.1733 7.99998 11.4 7.99998C11.6267 7.99998 11.8165 8.07652 11.9696 8.22958C12.1232 8.38318 12.2 8.57332 12.2 8.79998C12.2 9.02665 12.1232 9.21652 11.9696 9.36959C11.8165 9.52318 11.6267 9.59999 11.4 9.59999ZM8.2 12.8C7.97333 12.8 7.78347 12.7232 7.6304 12.5696C7.4768 12.4165 7.4 12.2267 7.4 12C7.4 11.7733 7.4768 11.5835 7.6304 11.4304C7.78347 11.2768 7.97333 11.2 8.2 11.2C8.42667 11.2 8.6168 11.2768 8.7704 11.4304C8.92347 11.5835 9 11.7733 9 12C9 12.2267 8.92347 12.4165 8.7704 12.5696C8.6168 12.7232 8.42667 12.8 8.2 12.8ZM5 12.8C4.77333 12.8 4.5832 12.7232 4.4296 12.5696C4.27653 12.4165 4.2 12.2267 4.2 12C4.2 11.7733 4.27653 11.5835 4.4296 11.4304C4.5832 11.2768 4.77333 11.2 5 11.2C5.22667 11.2 5.4168 11.2768 5.5704 11.4304C5.72347 11.5835 5.8 11.7733 5.8 12C5.8 12.2267 5.72347 12.4165 5.5704 12.5696C5.4168 12.7232 5.22667 12.8 5 12.8ZM11.4 12.8C11.1733 12.8 10.9835 12.7232 10.8304 12.5696C10.6768 12.4165 10.6 12.2267 10.6 12C10.6 11.7733 10.6768 11.5835 10.8304 11.4304C10.9835 11.2768 11.1733 11.2 11.4 11.2C11.6267 11.2 11.8165 11.2768 11.9696 11.4304C12.1232 11.5835 12.2 11.7733 12.2 12C12.2 12.2267 12.1232 12.4165 11.9696 12.5696C11.8165 12.7232 11.6267 12.8 11.4 12.8ZM2.6 16C2.16 16 1.7832 15.8435 1.4696 15.5304C1.15653 15.2168 1 14.84 1 14.4V3.19998C1 2.75998 1.15653 2.38345 1.4696 2.07038C1.7832 1.75678 2.16 1.59998 2.6 1.59998H3.4V-1.52588e-05H5V1.59998H11.4V-1.52588e-05H13V1.59998H13.8C14.24 1.59998 14.6168 1.75678 14.9304 2.07038C15.2435 2.38345 15.4 2.75998 15.4 3.19998V14.4C15.4 14.84 15.2435 15.2168 14.9304 15.5304C14.6168 15.8435 14.24 16 13.8 16H2.6ZM2.6 14.4H13.8V6.39998H2.6V14.4Z" fill="#AAAAAA"/>
</g>
<defs>
<clipPath id="clip0_1_36">
<rect width="16" height="16" fill="white"/>
</clipPath>
</defs>
</svg>
